<?xml version="1.0" encoding="UTF-8" standalone="no"?>
<!-- Created with Inkscape (http://www.inkscape.org/) -->

<svg
   width="33.454445mm"
   height="48.454659mm"
   viewBox="0 0 33.454445 48.45466"
   version="1.1"
   id="svg5"
   inkscape:version="1.1.1 (3bf5ae0d25, 2021-09-20)"
   sodipodi:docname="parentele.svg"
   xmlns:inkscape="http://www.inkscape.org/namespaces/inkscape"
   xmlns:sodipodi="http://sodipodi.sourceforge.net/DTD/sodipodi-0.dtd"
   xmlns="http://www.w3.org/2000/svg"
   xmlns:svg="http://www.w3.org/2000/svg">
  <sodipodi:namedview
     id="namedview7"
     pagecolor="#ffffff"
     bordercolor="#666666"
     borderopacity="1.0"
     inkscape:pageshadow="2"
     inkscape:pageopacity="0.0"
     inkscape:pagecheckerboard="0"
     inkscape:document-units="mm"
     showgrid="false"
     inkscape:zoom="0.34522221"
     inkscape:cx="-70.968783"
     inkscape:cy="550.37015"
     inkscape:window-width="1280"
     inkscape:window-height="778"
     inkscape:window-x="-6"
     inkscape:window-y="-6"
     inkscape:window-maximized="1"
     inkscape:current-layer="layer1"
     fit-margin-top="0"
     fit-margin-left="0"
     fit-margin-right="0"
     fit-margin-bottom="0" />
  <defs
     id="defs2" />
  <g
     inkscape:label="Ebene 1"
     inkscape:groupmode="layer"
     id="layer1"
     transform="translate(-14.137093,-18.503969)">
    <g
       id="g2837"
       transform="matrix(0.35277777,0,0,-0.35277777,38.364399,20.231016)">
      <g
         id="g2839">
        <g
           id="g2841">
          <path
             d="M 4.6963,0 C 4.6963,2.59372 2.59372,4.6963 0,4.6963 -2.59372,4.6963 -4.6963,2.59372 -4.6963,0 c 0,-2.59372 2.10258,-4.6963 4.6963,-4.6963 2.59372,0 4.6963,2.10258 4.6963,4.6963 z"
             style="fill:none;stroke:#808080;stroke-width:0.3985;stroke-linecap:butt;stroke-linejoin:miter;stroke-miterlimit:10;stroke-dasharray:0.3985, 1.99255;stroke-dashoffset:0;stroke-opacity:1"
             id="path2843" />
        </g>
        <g
           id="g2845">
          <g
             id="g2847" />
        </g>
      </g>
      <g
         id="g2849">
        <g
           id="g2851">
          <g
             id="g2853">
            <path
               d="m -16.56377,-42.52022 c 0,2.59374 -2.10258,4.69632 -4.69632,4.69632 -2.59371,0 -4.6963,-2.10258 -4.6963,-4.69632 0,-2.59373 2.10259,-4.69632 4.6963,-4.69632 2.59374,0 4.69632,2.10259 4.69632,4.69632 z"
               style="fill:none;stroke:#808080;stroke-width:0.3985;stroke-linecap:butt;stroke-linejoin:miter;stroke-miterlimit:10;stroke-dasharray:2.98883, 2.98883;stroke-dashoffset:0;stroke-opacity:1"
               id="path2855" />
          </g>
          <g
             id="g2857"
             transform="translate(-21.26,-42.52)">
            <g
               id="g2859" />
            <g
               id="g2861"
               transform="translate(21.26,42.52)" />
          </g>
        </g>
        <path
           d="M -2.18915,-4.3784 -19.07092,-38.1418"
           style="fill:none;stroke:#000000;stroke-width:0.3985;stroke-linecap:butt;stroke-linejoin:miter;stroke-miterlimit:10;stroke-dasharray:0.3985, 1.99255;stroke-dashoffset:0;stroke-opacity:1"
           id="path2863" />
        <g
           id="g2865">
          <g
             id="g2867">
            <g
               id="g2869">
              <path
                 d="m -32.80792,-85.04044 c 0,5.36399 -4.34827,9.71224 -9.71225,9.71224 -5.36399,0 -9.71223,-4.34825 -9.71223,-9.71224 0,-5.36398 4.34824,-9.71223 9.71223,-9.71223 5.36398,0 9.71225,4.34825 9.71225,9.71223 z"
                 style="fill:none;stroke:#000000;stroke-width:0.79701;stroke-linecap:butt;stroke-linejoin:miter;stroke-miterlimit:10;stroke-dasharray:none;stroke-opacity:1"
                 id="path2871" />
            </g>
            <g
               id="g2873"
               transform="translate(-46.256,-88.444)">
              <g
                 id="g2875">
                <g
                   id="g2877"
                   transform="translate(-22.419,-44.011)">
                  <text
                     transform="matrix(1,0,0,-1,22.419,44.011)"
                     style="font-variant:normal;font-weight:normal;font-size:9.9626px;font-family:CMR10;-inkscape-font-specification:CMR10;writing-mode:lr-tb;fill:#000000;fill-opacity:1;fill-rule:nonzero;stroke:none"
                     id="text2881"><tspan
                       x="0"
                       y="0"
                       id="tspan2879">X</tspan></text>
                  <g
                     id="g2883"
                     transform="translate(22.419,44.011)" />
                </g>
              </g>
              <g
                 id="g2885"
                 transform="translate(46.256,88.444)" />
            </g>
          </g>
          <path
             d="M -23.44925,-46.89862 -37.99892,-75.99777"
             style="fill:none;stroke:#000000;stroke-width:0.3985;stroke-linecap:butt;stroke-linejoin:miter;stroke-miterlimit:10;stroke-dasharray:2.98883, 2.98883;stroke-dashoffset:0;stroke-opacity:1"
             id="path2887" />
          <g
             id="g2889">
            <g
               id="g2891">
              <g
                 id="g2893">
                <path
                   d="m -59.08394,-127.56065 c 0,2.59372 -2.10258,4.6963 -4.69632,4.6963 -2.59374,0 -4.69632,-2.10258 -4.69632,-4.6963 0,-2.59374 2.10258,-4.69632 4.69632,-4.69632 2.59374,0 4.69632,2.10258 4.69632,4.69632 z"
                   style="fill:none;stroke:#000000;stroke-width:0.3985;stroke-linecap:butt;stroke-linejoin:miter;stroke-miterlimit:10;stroke-dasharray:none;stroke-opacity:1"
                   id="path2895" />
              </g>
              <g
                 id="g2897"
                 transform="translate(-63.78,-127.559)">
                <g
                   id="g2899" />
                <g
                   id="g2901"
                   transform="translate(63.78,127.559)" />
              </g>
            </g>
            <path
               d="M -47.04141,-94.0831 -61.5911,-123.18225"
               style="fill:none;stroke:#000000;stroke-width:0.3985;stroke-linecap:butt;stroke-linejoin:miter;stroke-miterlimit:10;stroke-dasharray:none;stroke-opacity:1"
               id="path2903" />
          </g>
          <g
             id="g2905">
            <g
               id="g2907">
              <g
                 id="g2909">
                <path
                   d="m -16.56372,-127.56065 c 0,2.59372 -2.10258,4.6963 -4.69632,4.6963 -2.59372,0 -4.6963,-2.10258 -4.6963,-4.6963 0,-2.59374 2.10258,-4.69632 4.6963,-4.69632 2.59374,0 4.69632,2.10258 4.69632,4.69632 z"
                   style="fill:none;stroke:#000000;stroke-width:0.3985;stroke-linecap:butt;stroke-linejoin:miter;stroke-miterlimit:10;stroke-dasharray:none;stroke-opacity:1"
                   id="path2911" />
              </g>
              <g
                 id="g2913"
                 transform="translate(-21.26,-127.559)">
                <g
                   id="g2915" />
                <g
                   id="g2917"
                   transform="translate(21.26,127.559)" />
              </g>
            </g>
            <path
               d="m -37.99892,-94.0831 14.54972,-29.09915"
               style="fill:none;stroke:#000000;stroke-width:0.3985;stroke-linecap:butt;stroke-linejoin:miter;stroke-miterlimit:10;stroke-dasharray:none;stroke-opacity:1"
               id="path2919" />
          </g>
        </g>
        <g
           id="g2921">
          <g
             id="g2923">
            <g
               id="g2925">
              <path
                 d="m 4.69635,-85.04044 c 0,2.59374 -2.10258,4.69632 -4.69632,4.69632 -2.5937,0 -4.69629,-2.10258 -4.69629,-4.69632 0,-2.59373 2.10259,-4.69632 4.69629,-4.69632 2.59374,0 4.69632,2.10259 4.69632,4.69632 z"
                 style="fill:none;stroke:#808080;stroke-width:0.3985;stroke-linecap:butt;stroke-linejoin:miter;stroke-miterlimit:10;stroke-dasharray:2.98883, 2.98883;stroke-dashoffset:0;stroke-opacity:1"
                 id="path2927" />
            </g>
            <g
               id="g2929"
               transform="translate(0,-85.04)">
              <g
                 id="g2931" />
              <g
                 id="g2933"
                 transform="translate(0,85.04)" />
            </g>
          </g>
          <path
             d="M -19.07092,-46.89862 -2.1891,-80.66202"
             style="fill:none;stroke:#000000;stroke-width:0.3985;stroke-linecap:butt;stroke-linejoin:miter;stroke-miterlimit:10;stroke-dasharray:2.98883, 2.98883;stroke-dashoffset:0;stroke-opacity:1"
             id="path2935" />
        </g>
      </g>
      <g
         id="g2937">
        <g
           id="g2939">
          <g
             id="g2941">
            <path
               d="m 25.95644,-42.52022 c 0,2.59374 -2.10259,4.69632 -4.69631,4.69632 -2.59373,0 -4.69632,-2.10258 -4.69632,-4.69632 0,-2.59373 2.10259,-4.69632 4.69632,-4.69632 2.59372,0 4.69631,2.10259 4.69631,4.69632 z"
               style="fill:none;stroke:#808080;stroke-width:0.3985;stroke-linecap:butt;stroke-linejoin:miter;stroke-miterlimit:10;stroke-dasharray:0.3985, 1.99255;stroke-dashoffset:0;stroke-opacity:1"
               id="path2943" />
          </g>
          <g
             id="g2945"
             transform="translate(21.26,-42.52)">
            <g
               id="g2947" />
            <g
               id="g2949"
               transform="translate(-21.26,42.52)" />
          </g>
        </g>
        <path
           d="M 2.18915,-4.3784 19.07097,-38.1418"
           style="fill:none;stroke:#000000;stroke-width:0.3985;stroke-linecap:butt;stroke-linejoin:miter;stroke-miterlimit:10;stroke-dasharray:0.3985, 1.99255;stroke-dashoffset:0;stroke-opacity:1"
           id="path2951" />
      </g>
    </g>
  </g>
</svg>
