<?xml version="1.0" encoding="UTF-8" standalone="no"?>
<svg
   xmlns:dc="http://purl.org/dc/elements/1.1/"
   xmlns:cc="http://creativecommons.org/ns#"
   xmlns:rdf="http://www.w3.org/1999/02/22-rdf-syntax-ns#"
   xmlns:svg="http://www.w3.org/2000/svg"
   xmlns="http://www.w3.org/2000/svg"
   version="1.1"
   id="svg2"
   xml:space="preserve"
   width="621.14801"
   height="592.32666"
   viewBox="0 0 621.14801 592.32666"><metadata
     id="metadata8"><rdf:RDF><cc:Work
         rdf:about=""><dc:format>image/svg+xml</dc:format><dc:type
           rdf:resource="http://purl.org/dc/dcmitype/StillImage" /></cc:Work></rdf:RDF></metadata><defs
     id="defs6" /><g
     id="g10"
     transform="matrix(1.3333333,0,0,-1.3333333,0,592.32667)"><g
       id="g12"
       transform="translate(64.086,436.496)"><g
         id="g14"><g
           id="g16"><g
             id="g18"><g
               id="g20"
               transform="translate(-23.592,-2.49)"><g
                 id="g22"><g
                   id="g24"
                   transform="translate(-40.494,-434.006)"><text
                     transform="matrix(1,0,0,-1,40.494,434.006)"
                     style="font-variant:normal;font-weight:normal;font-size:9.9626px;font-family:CMR10;-inkscape-font-specification:CMR10;writing-mode:lr-tb;fill:#000000;fill-opacity:1;fill-rule:nonzero;stroke:none"
                     id="text28"><tspan
                       x="0 6.7805457 12.315766 16.743145 21.724445 26.705746 30.5802 34.454655 42.199581"
                       y="0"
                       id="tspan26">Ehegatte1</tspan></text><g
                     id="g30"
                     transform="translate(40.494,434.006)" /></g></g><g
                 id="g32"
                 transform="translate(23.592,2.49)" /></g></g><g
             id="g34"><g
               id="g36"
               transform="translate(314.096,-2.49)"><g
                 id="g38"><g
                   id="g40"
                   transform="translate(-378.182,-434.006)"><text
                     transform="matrix(1,0,0,-1,378.182,434.006)"
                     style="font-variant:normal;font-weight:normal;font-size:9.9626px;font-family:CMR10;-inkscape-font-specification:CMR10;writing-mode:lr-tb;fill:#000000;fill-opacity:1;fill-rule:nonzero;stroke:none"
                     id="text44"><tspan
                       x="0 6.7805457 12.315766 16.743145 21.724445 26.705746 30.5802 34.454655 42.199581"
                       y="0"
                       id="tspan42">Ehegatte2</tspan></text><g
                     id="g46"
                     transform="translate(378.182,434.006)" /></g></g><g
                 id="g48"
                 transform="translate(-314.096,2.49)" /></g></g><g
             id="g50"><g
               id="g52"
               transform="translate(-50.007,-46.732)"><g
                 id="g54"><g
                   id="g56"
                   transform="translate(-14.079,-389.764)"><text
                     transform="matrix(1,0,0,-1,14.079,389.764)"
                     style="font-variant:normal;font-weight:normal;font-size:9.9626px;font-family:CMR10;-inkscape-font-specification:CMR10;writing-mode:lr-tb;fill:#000000;fill-opacity:1;fill-rule:nonzero;stroke:none"
                     id="text60"><tspan
                       x="0 6.6450543 11.626354 15.528705 19.956083 25.491304 29.918684 32.686295 35.453903 39.602333 45.13755 49.56493 56.811726 63.456779 67.884163 71.786514 80.088348 80.088348 85.069649 90.050941 94.478325"
                       y="0"
                       id="tspan58">VorehelichesVerm¨ogen</tspan></text><g
                     id="g62"
                     transform="translate(14.079,389.764)" /></g></g><g
                 id="g64"
                 transform="translate(50.007,46.732)" /></g></g><g
             id="g66"><g
               id="g68"
               transform="translate(-25.848,-90.974)"><g
                 id="g70"><g
                   id="g72"
                   transform="translate(-38.238,-345.522)"><text
                     transform="matrix(1,0,0,-1,38.238,345.522)"
                     style="font-variant:normal;font-weight:normal;font-size:9.9626px;font-family:CMR10;-inkscape-font-specification:CMR10;writing-mode:lr-tb;fill:#000000;fill-opacity:1;fill-rule:nonzero;stroke:none"
                     id="text76"><tspan
                       x="0 6.7805457 10.682896 16.218117 20.147366 24.295794 29.831013 34.812313 37.856884 41.731339 46.158718"
                       y="0"
                       id="tspan74">Erbschaften</tspan></text><g
                     id="g78"
                     transform="translate(38.238,345.522)" /></g></g><g
                 id="g80"
                 transform="translate(25.848,90.974)" /></g></g><g
             id="g82"><g
               id="g84"
               transform="translate(-26.74,-133.167)"><g
                 id="g86"><g
                   id="g88"
                   transform="translate(-37.346,-303.329)"><text
                     transform="matrix(1,0,0,-1,37.346,303.329)"
                     style="font-variant:normal;font-weight:normal;font-size:9.9626px;font-family:CMR10;-inkscape-font-specification:CMR10;writing-mode:lr-tb;fill:#000000;fill-opacity:1;fill-rule:nonzero;stroke:none"
                     id="text92"><tspan
                       x="0 7.8176522 12.245031 17.501299 23.03652 28.01782 31.892275 37.427494 42.962715 48.497936"
                       y="0"
                       id="tspan90">Genugtuung</tspan></text><g
                     id="g94"
                     transform="translate(37.346,303.329)" /></g></g><g
                 id="g96"
                 transform="translate(26.74,133.167)" /></g></g><g
             id="g98"><g
               id="g100"
               transform="translate(-49.488,-189.364)"><g
                 id="g102"><g
                   id="g104"
                   transform="translate(-14.598,-247.132)"><text
                     transform="matrix(1,0,0,-1,25.557,259.087)"
                     style="font-variant:normal;font-weight:normal;font-size:9.9626px;font-family:CMR10;-inkscape-font-specification:CMR10;writing-mode:lr-tb;fill:#000000;fill-opacity:1;fill-rule:nonzero;stroke:none"
                     id="text110"><tspan
                       x="0 7.8176522 12.245031 17.226332 21.653711 27.188932 31.118181 34.992638 34.992638 39.973938 45.509155 51.044376 58.789303 63.216682 68.7519"
                       y="0"
                       id="tspan106">Gegenst¨andezum</tspan><tspan
                       x="-10.959 -5.1448264 -0.71744722 3.1849031 7.1141524 7.1141524 12.095452 17.630672 20.398283 23.165894 27.31432 32.849541 37.27692 46.129688 53.947338 58.374718 63.909939 67.812286 72.793587 78.328812 82.487198"
                       y="11.955"
                       id="tspan108">pers¨onlichenGebrauch</tspan></text><g
                     id="g112"
                     transform="translate(14.598,247.132)" /></g></g><g
                 id="g114"
                 transform="translate(49.488,189.364)" /></g></g><g
             id="g116"><g
               id="g118"
               transform="translate(-27.736,-245.561)"><g
                 id="g120"><g
                   id="g122"
                   transform="translate(-36.35,-190.935)"><text
                     transform="matrix(1,0,0,-1,42.417,202.89)"
                     style="font-variant:normal;font-weight:normal;font-size:9.9626px;font-family:CMR10;-inkscape-font-specification:CMR10;writing-mode:lr-tb;fill:#000000;fill-opacity:1;fill-rule:nonzero;stroke:none"
                     id="text128"><tspan
                       x="0 7.0565095 11.483889 15.386239 20.921459 26.45668 29.224291 33.372719 38.90794"
                       y="0"
                       id="tspan124">Berufiche</tspan><tspan
                       x="-6.0669999 1.7506522 6.1780314 11.159331 15.586711 21.121931 25.051182 28.925636 28.925636 33.906937 39.442158 44.977379"
                       y="11.955"
                       id="tspan126">Gegenst¨ande</tspan></text><g
                     id="g130"
                     transform="translate(36.35,190.935)" /></g></g><g
                 id="g132"
                 transform="translate(27.736,245.561)" /></g></g><g
             id="g134"><g
               id="g136"><path
                 d="M -56.848,-254.34218 H 56.84801 V -32.97395 H -56.848 Z"
                 style="fill:none;stroke:#000000;stroke-width:0.3985;stroke-linecap:butt;stroke-linejoin:miter;stroke-miterlimit:10;stroke-dasharray:0.3985, 1.99255;stroke-dashoffset:0;stroke-opacity:1"
                 id="path138" /></g><g
               id="g140"
               transform="translate(-53.527,-143.656)"><g
                 id="g142" /><g
                 id="g144"
                 transform="translate(53.527,143.656)" /></g></g><g
             id="g146"><g
               id="g148"><path
                 d="m -22.23032,-40.46779 h 44.46065 v 15.38618 h -44.46065 z"
                 style="fill:#ffffff;fill-opacity:1;fill-rule:nonzero;stroke:none"
                 id="path150" /></g><g
               id="g152"
               transform="translate(-18.909,-35.209)"><g
                 id="g154"><g
                   id="g156"
                   transform="translate(-45.177,-401.287)"><text
                     transform="matrix(1,0,0,-1,45.177,401.287)"
                     style="font-variant:normal;font-weight:normal;font-size:9.9626px;font-family:CMTI10;-inkscape-font-specification:CMTI10;writing-mode:lr-tb;fill:#000000;fill-opacity:1;fill-rule:nonzero;stroke:none"
                     id="text160"><tspan
                       x="0 6.7576318 9.8131609 14.395957 18.978752 24.579727 29.162523 34.509449"
                       y="0"
                       id="tspan158">Eigengut</tspan></text><g
                     id="g162"
                     transform="translate(45.177,401.287)" /></g></g><g
                 id="g164"
                 transform="translate(18.909,35.209)" /></g></g><g
             id="g166"><g
               id="g168"
               transform="translate(287.681,-46.732)"><g
                 id="g170"><g
                   id="g172"
                   transform="translate(-351.767,-389.764)"><text
                     transform="matrix(1,0,0,-1,351.767,389.764)"
                     style="font-variant:normal;font-weight:normal;font-size:9.9626px;font-family:CMR10;-inkscape-font-specification:CMR10;writing-mode:lr-tb;fill:#000000;fill-opacity:1;fill-rule:nonzero;stroke:none"
                     id="text176"><tspan
                       x="0 6.6450543 11.626354 15.528705 19.956083 25.491304 29.918684 32.686295 35.453903 39.602333 45.13755 49.56493 56.811726 63.456779 67.884163 71.786514 80.088348 80.088348 85.069649 90.050941 94.478325"
                       y="0"
                       id="tspan174">VorehelichesVerm¨ogen</tspan></text><g
                     id="g178"
                     transform="translate(351.767,389.764)" /></g></g><g
                 id="g180"
                 transform="translate(-287.681,46.732)" /></g></g><g
             id="g182"><g
               id="g184"
               transform="translate(311.841,-90.974)"><g
                 id="g186"><g
                   id="g188"
                   transform="translate(-375.927,-345.522)"><text
                     transform="matrix(1,0,0,-1,375.927,345.522)"
                     style="font-variant:normal;font-weight:normal;font-size:9.9626px;font-family:CMR10;-inkscape-font-specification:CMR10;writing-mode:lr-tb;fill:#000000;fill-opacity:1;fill-rule:nonzero;stroke:none"
                     id="text192"><tspan
                       x="0 6.7805457 10.682896 16.218117 20.147366 24.295794 29.831013 34.812313 37.856884 41.731339 46.158718"
                       y="0"
                       id="tspan190">Erbschaften</tspan></text><g
                     id="g194"
                     transform="translate(375.927,345.522)" /></g></g><g
                 id="g196"
                 transform="translate(-311.841,90.974)" /></g></g><g
             id="g198"><g
               id="g200"
               transform="translate(310.948,-133.167)"><g
                 id="g202"><g
                   id="g204"
                   transform="translate(-375.034,-303.329)"><text
                     transform="matrix(1,0,0,-1,375.034,303.329)"
                     style="font-variant:normal;font-weight:normal;font-size:9.9626px;font-family:CMR10;-inkscape-font-specification:CMR10;writing-mode:lr-tb;fill:#000000;fill-opacity:1;fill-rule:nonzero;stroke:none"
                     id="text208"><tspan
                       x="0 7.8176522 12.245031 17.501299 23.03652 28.01782 31.892275 37.427494 42.962715 48.497936"
                       y="0"
                       id="tspan206">Genugtuung</tspan></text><g
                     id="g210"
                     transform="translate(375.034,303.329)" /></g></g><g
                 id="g212"
                 transform="translate(-310.948,133.167)" /></g></g><g
             id="g214"><g
               id="g216"
               transform="translate(288.2,-189.364)"><g
                 id="g218"><g
                   id="g220"
                   transform="translate(-352.286,-247.132)"><text
                     transform="matrix(1,0,0,-1,363.245,259.087)"
                     style="font-variant:normal;font-weight:normal;font-size:9.9626px;font-family:CMR10;-inkscape-font-specification:CMR10;writing-mode:lr-tb;fill:#000000;fill-opacity:1;fill-rule:nonzero;stroke:none"
                     id="text226"><tspan
                       x="0 7.8176522 12.245031 17.226332 21.653711 27.188932 31.118181 34.992638 34.992638 39.973938 45.509155 51.044376 58.789303 63.216682 68.7519"
                       y="0"
                       id="tspan222">Gegenst¨andezum</tspan><tspan
                       x="-10.959 -5.1448264 -0.71744722 3.1849031 7.1141524 7.1141524 12.095452 17.630672 20.398283 23.165894 27.31432 32.849541 37.27692 46.129688 53.947338 58.374718 63.909939 67.812286 72.793587 78.328812 82.487198"
                       y="11.955"
                       id="tspan224">pers¨onlichenGebrauch</tspan></text><g
                     id="g228"
                     transform="translate(352.286,247.132)" /></g></g><g
                 id="g230"
                 transform="translate(-288.2,189.364)" /></g></g><g
             id="g232"><g
               id="g234"
               transform="translate(309.952,-245.561)"><g
                 id="g236"><g
                   id="g238"
                   transform="translate(-374.038,-190.935)"><text
                     transform="matrix(1,0,0,-1,380.106,202.89)"
                     style="font-variant:normal;font-weight:normal;font-size:9.9626px;font-family:CMR10;-inkscape-font-specification:CMR10;writing-mode:lr-tb;fill:#000000;fill-opacity:1;fill-rule:nonzero;stroke:none"
                     id="text244"><tspan
                       x="0 7.0565095 11.483889 15.386239 20.921459 26.45668 29.224291 33.372719 38.90794"
                       y="0"
                       id="tspan240">Berufiche</tspan><tspan
                       x="-6.0679998 1.7496523 6.1770315 11.158332 15.585711 21.120932 25.05018 28.924637 28.924637 33.905937 39.441158 44.976376"
                       y="11.955"
                       id="tspan242">Gegenst¨ande</tspan></text><g
                     id="g246"
                     transform="translate(374.038,190.935)" /></g></g><g
                 id="g248"
                 transform="translate(-309.952,245.561)" /></g></g><g
             id="g250"><g
               id="g252"
               transform="translate(297.091,-289.803)"><g
                 id="g254"><g
                   id="g256"
                   transform="translate(-361.177,-146.693)"><text
                     transform="matrix(1,0,0,-1,361.177,146.693)"
                     style="font-variant:normal;font-weight:normal;font-size:9.9626px;font-family:CMR10;-inkscape-font-specification:CMR10;writing-mode:lr-tb;fill:#000000;fill-opacity:1;fill-rule:nonzero;stroke:none"
                     id="text260"><tspan
                       x="0 9.1327152 13.560095 19.095316 22.997665 29.913702 34.341084 38.243431 42.117889 47.099186 52.634407 56.563656 61.544956 64.312569 68.739944 71.507561 75.655983"
                       y="0"
                       id="tspan258">Mehrwertausgleich</tspan></text><g
                     id="g262"
                     transform="translate(361.177,146.693)" /></g></g><g
                 id="g264"
                 transform="translate(-297.091,289.803)" /></g></g><g
             id="g266"><g
               id="g268"><path
                 d="M 280.84471,-298.58443 H 394.54072 V -32.97399 H 280.84471 Z"
                 style="fill:none;stroke:#000000;stroke-width:0.3985;stroke-linecap:butt;stroke-linejoin:miter;stroke-miterlimit:10;stroke-dasharray:0.3985, 1.99255;stroke-dashoffset:0;stroke-opacity:1"
                 id="path270" /></g><g
               id="g272"
               transform="translate(284.162,-165.777)"><g
                 id="g274" /><g
                 id="g276"
                 transform="translate(-284.162,165.777)" /></g></g><g
             id="g278"><g
               id="g280"><path
                 d="m 315.4624,-40.4678 h 44.46065 v 15.38618 H 315.4624 Z"
                 style="fill:#ffffff;fill-opacity:1;fill-rule:nonzero;stroke:none"
                 id="path282" /></g><g
               id="g284"
               transform="translate(318.779,-35.209)"><g
                 id="g286"><g
                   id="g288"
                   transform="translate(-382.865,-401.287)"><text
                     transform="matrix(1,0,0,-1,382.865,401.287)"
                     style="font-variant:normal;font-weight:normal;font-size:9.9626px;font-family:CMTI10;-inkscape-font-specification:CMTI10;writing-mode:lr-tb;fill:#000000;fill-opacity:1;fill-rule:nonzero;stroke:none"
                     id="text292"><tspan
                       x="0 6.7576318 9.8131609 14.395957 18.978752 24.579727 29.162523 34.509449"
                       y="0"
                       id="tspan290">Eigengut</tspan></text><g
                     id="g294"
                     transform="translate(382.865,401.287)" /></g></g><g
                 id="g296"
                 transform="translate(-318.779,35.209)" /></g></g><g
             id="g298"><g
               id="g300"
               transform="translate(-30.649,-289.803)"><g
                 id="g302"><g
                   id="g304"
                   transform="translate(-33.437,-146.693)"><text
                     transform="matrix(1,0,0,-1,33.437,146.693)"
                     style="font-variant:normal;font-weight:normal;font-size:9.9626px;font-family:CMR10;-inkscape-font-specification:CMR10;writing-mode:lr-tb;fill:#000000;fill-opacity:1;fill-rule:nonzero;stroke:none"
                     id="text308"><tspan
                       x="0 7.4719501 11.3743 17.188475 21.615852 24.383463 28.257919 32.187168 36.614548 40.516899 47.432934 51.860313 55.762665"
                       y="0"
                       id="tspan306">Arbeitserwerb</tspan></text><g
                     id="g310"
                     transform="translate(33.437,146.693)" /></g></g><g
                 id="g312"
                 transform="translate(30.649,289.803)" /></g></g><g
             id="g314"><g
               id="g316"
               transform="translate(-46.409,-331.996)"><g
                 id="g318"><g
                   id="g320"
                   transform="translate(-17.677,-104.5)"><text
                     transform="matrix(1,0,0,-1,17.677,104.5)"
                     style="font-variant:normal;font-weight:normal;font-size:9.9626px;font-family:CMR10;-inkscape-font-specification:CMR10;writing-mode:lr-tb;fill:#000000;fill-opacity:1;fill-rule:nonzero;stroke:none"
                     id="text324"><tspan
                       x="0 6.7805457 10.682896 14.557351 18.459702 18.459702 23.441002 28.422302 36.167225 41.148525 46.683746 53.940506 60.72105 63.488663 68.469963 72.897339 78.432564 83.413864 88.939117"
                       y="0"
                       id="tspan322">Ertr¨ageausEigengut</tspan></text><g
                     id="g326"
                     transform="translate(17.677,104.5)" /></g></g><g
                 id="g328"
                 transform="translate(46.409,331.996)" /></g></g><g
             id="g330"><g
               id="g332"
               transform="translate(-40.958,-376.238)"><g
                 id="g334"><g
                   id="g336"
                   transform="translate(-23.128,-60.258)"><text
                     transform="matrix(1,0,0,-1,23.128,60.258)"
                     style="font-variant:normal;font-weight:normal;font-size:9.9626px;font-family:CMR10;-inkscape-font-specification:CMR10;writing-mode:lr-tb;fill:#000000;fill-opacity:1;fill-rule:nonzero;stroke:none"
                     id="text340"><tspan
                       x="0 7.7489104 12.73021 18.26543 21.033041 24.907495 29.888796 32.656406 37.083786 39.851395 45.386616 50.365925 55.347225 63.649059 71.950897 76.378273"
                       y="0"
                       id="tspan338">Kapitaleinkommen</tspan></text><g
                     id="g342"
                     transform="translate(23.128,60.258)" /></g></g><g
                 id="g344"
                 transform="translate(40.958,376.238)" /></g></g><g
             id="g346"><g
               id="g348"
               transform="translate(-34.869,-420.48)"><g
                 id="g350"><g
                   id="g352"
                   transform="translate(-29.217,-16.016)"><text
                     transform="matrix(1,0,0,-1,29.217,16.016)"
                     style="font-variant:normal;font-weight:normal;font-size:9.9626px;font-family:CMR10;-inkscape-font-specification:CMR10;writing-mode:lr-tb;fill:#000000;fill-opacity:1;fill-rule:nonzero;stroke:none"
                     id="text356"><tspan
                       x="0 6.7805457 10.682896 14.612145 19.593445 23.467901 27.895281 30.93985 35.92115 39.823502 45.358723 49.786102 53.68845 59.223671 64.758896"
                       y="0"
                       id="tspan354">Ersatzforderung</tspan></text><g
                     id="g358"
                     transform="translate(29.217,16.016)" /></g></g><g
                 id="g360"
                 transform="translate(34.869,420.48)" /></g></g><g
             id="g362"><g
               id="g364"><path
                 d="M -53.25037,-429.2632 H 53.25036 v 153.21532 H -53.25037 Z"
                 style="fill:none;stroke:#000000;stroke-width:0.3985;stroke-linecap:butt;stroke-linejoin:miter;stroke-miterlimit:10;stroke-dasharray:0.3985, 1.99255;stroke-dashoffset:0;stroke-opacity:1"
                 id="path366" /></g><g
               id="g368"
               transform="translate(-49.929,-352.651)"><g
                 id="g370" /><g
                 id="g372"
                 transform="translate(49.929,352.651)" /></g></g><g
             id="g374"><g
               id="g376"><path
                 d="m -36.36075,-283.59708 h 72.72151 v 15.49692 h -72.72151 z"
                 style="fill:#ffffff;fill-opacity:1;fill-rule:nonzero;stroke:none"
                 id="path378" /></g><g
               id="g380"
               transform="translate(-33.04,-278.335)"><g
                 id="g382"><g
                   id="g384"
                   transform="translate(-31.046,-158.161)"><text
                     transform="matrix(1,0,0,-1,31.046,158.161)"
                     style="font-variant:normal;font-weight:normal;font-size:9.9626px;font-family:CMTI10;-inkscape-font-specification:CMTI10;writing-mode:lr-tb;fill:#000000;fill-opacity:1;fill-rule:nonzero;stroke:none"
                     id="text388"><tspan
                       x="0 6.7576318 10.95886 15.160089 20.507015 26.10799 30.690786 35.273582 40.874554 44.948261 49.531059 54.622944 59.714828 62.770359"
                       y="0"
                       id="tspan386">Errungenschaft</tspan></text><g
                     id="g390"
                     transform="translate(31.046,158.161)" /></g></g><g
                 id="g392"
                 transform="translate(33.04,278.335)" /></g></g><g
             id="g394"><g
               id="g396"
               transform="translate(307.039,-334.044)"><g
                 id="g398"><g
                   id="g400"
                   transform="translate(-371.125,-102.452)"><text
                     transform="matrix(1,0,0,-1,371.125,102.452)"
                     style="font-variant:normal;font-weight:normal;font-size:9.9626px;font-family:CMR10;-inkscape-font-specification:CMR10;writing-mode:lr-tb;fill:#000000;fill-opacity:1;fill-rule:nonzero;stroke:none"
                     id="text404"><tspan
                       x="0 7.4719501 11.3743 17.188475 21.615852 24.383463 28.257919 32.187168 36.614548 40.516899 47.432934 51.860313 55.762665"
                       y="0"
                       id="tspan402">Arbeitserwerb</tspan></text><g
                     id="g406"
                     transform="translate(371.125,102.452)" /></g></g><g
                 id="g408"
                 transform="translate(-307.039,334.044)" /></g></g><g
             id="g410"><g
               id="g412"
               transform="translate(291.279,-376.238)"><g
                 id="g414"><g
                   id="g416"
                   transform="translate(-355.365,-60.258)"><text
                     transform="matrix(1,0,0,-1,355.365,60.258)"
                     style="font-variant:normal;font-weight:normal;font-size:9.9626px;font-family:CMR10;-inkscape-font-specification:CMR10;writing-mode:lr-tb;fill:#000000;fill-opacity:1;fill-rule:nonzero;stroke:none"
                     id="text420"><tspan
                       x="0 6.7805457 10.682896 14.557351 18.459702 18.459702 23.441002 28.422302 36.167225 41.148525 46.683746 53.940506 60.72105 63.488663 68.469963 72.897339 78.432564 83.413864 88.949081"
                       y="0"
                       id="tspan418">Ertr¨ageausEigengut</tspan></text><g
                     id="g422"
                     transform="translate(355.365,60.258)" /></g></g><g
                 id="g424"
                 transform="translate(-291.279,376.238)" /></g></g><g
             id="g426"><g
               id="g428"
               transform="translate(296.731,-420.48)"><g
                 id="g430"><g
                   id="g432"
                   transform="translate(-360.817,-16.016)"><text
                     transform="matrix(1,0,0,-1,360.817,16.016)"
                     style="font-variant:normal;font-weight:normal;font-size:9.9626px;font-family:CMR10;-inkscape-font-specification:CMR10;writing-mode:lr-tb;fill:#000000;fill-opacity:1;fill-rule:nonzero;stroke:none"
                     id="text436"><tspan
                       x="0 7.7489104 12.73021 18.26543 21.033041 24.907495 29.888796 32.656406 37.083786 39.851395 45.386616 50.365925 55.347225 63.649059 71.950897 76.378273"
                       y="0"
                       id="tspan434">Kapitaleinkommen</tspan></text><g
                     id="g438"
                     transform="translate(360.817,16.016)" /></g></g><g
                 id="g440"
                 transform="translate(-296.731,420.48)" /></g></g><g
             id="g442"><g
               id="g444"><path
                 d="m 284.44235,-429.2632 h 106.50073 v 108.9731 H 284.44235 Z"
                 style="fill:none;stroke:#000000;stroke-width:0.3985;stroke-linecap:butt;stroke-linejoin:miter;stroke-miterlimit:10;stroke-dasharray:0.3985, 1.99255;stroke-dashoffset:0;stroke-opacity:1"
                 id="path446" /></g><g
               id="g448"
               transform="translate(287.759,-374.771)"><g
                 id="g450" /><g
                 id="g452"
                 transform="translate(-287.759,374.771)" /></g></g><g
             id="g454"><g
               id="g456"><path
                 d="m 301.33197,-327.83931 h 72.72151 v 15.49692 h -72.72151 z"
                 style="fill:#ffffff;fill-opacity:1;fill-rule:nonzero;stroke:none"
                 id="path458" /></g><g
               id="g460"
               transform="translate(304.649,-322.577)"><g
                 id="g462"><g
                   id="g464"
                   transform="translate(-368.735,-113.919)"><text
                     transform="matrix(1,0,0,-1,368.735,113.919)"
                     style="font-variant:normal;font-weight:normal;font-size:9.9626px;font-family:CMTI10;-inkscape-font-specification:CMTI10;writing-mode:lr-tb;fill:#000000;fill-opacity:1;fill-rule:nonzero;stroke:none"
                     id="text468"><tspan
                       x="0 6.7576318 10.95886 15.160089 20.507015 26.10799 30.690786 35.273582 40.874554 44.948261 49.531059 54.622944 59.714828 62.770359"
                       y="0"
                       id="tspan466">Errungenschaft</tspan></text><g
                     id="g470"
                     transform="translate(368.735,113.919)" /></g></g><g
                 id="g472"
                 transform="translate(-304.649,322.577)" /></g></g><g
             id="g474"><g
               id="g476"><path
                 d="M -60.36783,-432.78302 H 60.36783 V -21.56178 H -60.36783 Z"
                 style="fill:none;stroke:#000000;stroke-width:0.3985;stroke-linecap:butt;stroke-linejoin:miter;stroke-miterlimit:10;stroke-dasharray:2.98883, 2.98883;stroke-dashoffset:0;stroke-opacity:1"
                 id="path478" /></g><g
               id="g480"
               transform="translate(-57.047,-227.169)"><g
                 id="g482" /><g
                 id="g484"
                 transform="translate(57.047,227.169)" /></g></g><g
             id="g486"><g
               id="g488"><path
                 d="m -25.03648,-29.05562 h 50.07297 v 15.38618 h -50.07297 z"
                 style="fill:#ffffff;fill-opacity:1;fill-rule:nonzero;stroke:none"
                 id="path490" /></g><g
               id="g492"
               transform="translate(-21.716,-23.797)"><g
                 id="g494"><g
                   id="g496"
                   transform="translate(-42.37,-412.699)"><text
                     transform="matrix(1,0,0,-1,42.37,412.699)"
                     style="font-variant:normal;font-weight:normal;font-size:9.9626px;font-family:CMTI10;-inkscape-font-specification:CMTI10;writing-mode:lr-tb;fill:#000000;fill-opacity:1;fill-rule:nonzero;stroke:none"
                     id="text500"><tspan
                       x="0 6.6380806 11.220877 15.422105 23.569519 23.570515 28.662399 33.245197 37.827991"
                       y="0"
                       id="tspan498">Verm¨ogen</tspan></text><g
                     id="g502"
                     transform="translate(42.37,412.699)" /></g></g><g
                 id="g504"
                 transform="translate(21.716,23.797)" /></g></g><g
             id="g506"><g
               id="g508"><path
                 d="m 277.32489,-432.78302 h 120.73566 v 411.2212 H 277.32489 Z"
                 style="fill:none;stroke:#000000;stroke-width:0.3985;stroke-linecap:butt;stroke-linejoin:miter;stroke-miterlimit:10;stroke-dasharray:2.98883, 2.98883;stroke-dashoffset:0;stroke-opacity:1"
                 id="path510" /></g><g
               id="g512"
               transform="translate(280.642,-227.169)"><g
                 id="g514" /><g
                 id="g516"
                 transform="translate(-280.642,227.169)" /></g></g><g
             id="g518"><g
               id="g520"><path
                 d="m 312.65623,-29.05565 h 50.07297 v 15.38618 h -50.07297 z"
                 style="fill:#ffffff;fill-opacity:1;fill-rule:nonzero;stroke:none"
                 id="path522" /></g><g
               id="g524"
               transform="translate(315.973,-23.797)"><g
                 id="g526"><g
                   id="g528"
                   transform="translate(-380.059,-412.699)"><text
                     transform="matrix(1,0,0,-1,380.059,412.699)"
                     style="font-variant:normal;font-weight:normal;font-size:9.9626px;font-family:CMTI10;-inkscape-font-specification:CMTI10;writing-mode:lr-tb;fill:#000000;fill-opacity:1;fill-rule:nonzero;stroke:none"
                     id="text532"><tspan
                       x="0 6.6380806 11.220877 15.422105 23.569519 23.570515 28.662399 33.245197 37.827991"
                       y="0"
                       id="tspan530">Verm¨ogen</tspan></text><g
                     id="g534"
                     transform="translate(380.059,412.699)" /></g></g><g
                 id="g536"
                 transform="translate(-315.973,23.797)" /></g></g><g
             id="g538"><path
               d="M -63.88765,-436.30284 H 401.58038 V -10.14961 H -63.88765 Z"
               style="fill:none;stroke:#000000;stroke-width:0.3985;stroke-linecap:butt;stroke-linejoin:miter;stroke-miterlimit:10;stroke-dasharray:none;stroke-opacity:1"
               id="path540" /><g
               id="g542"
               transform="translate(-60.566,-223.223)"><g
                 id="g544" /><g
                 id="g546"
                 transform="translate(60.566,223.223)" /></g></g><g
             id="g548"><g
               id="g550"><path
                 d="m 121.84488,-17.69882 h 94.00294 V -2.2019 h -94.00294 z"
                 style="fill:#ffffff;fill-opacity:1;fill-rule:nonzero;stroke:none"
                 id="path552" /></g><g
               id="g554"
               transform="translate(125.164,-12.44)"><g
                 id="g556"><g
                   id="g558"
                   transform="translate(-189.25,-424.056)"><text
                     transform="matrix(1,0,0,-1,189.25,424.056)"
                     style="font-variant:normal;font-weight:normal;font-size:9.9626px;font-family:CMTI10;-inkscape-font-specification:CMTI10;writing-mode:lr-tb;fill:#000000;fill-opacity:1;fill-rule:nonzero;stroke:none"
                     id="text562"><tspan
                       x="0 6.7576318 11.849517 16.432312 18.978752 22.034283 26.617079 31.708963 36.291759 43.932076 50.570156 55.152954 59.354183 67.501595 67.502594 72.594475 77.177277 81.760071"
                       y="0"
                       id="tspan560">EhelichesVerm¨ogen</tspan></text><g
                     id="g564"
                     transform="translate(189.25,424.056)" /></g></g><g
                 id="g566"
                 transform="translate(-125.164,12.44)" /></g></g><g
             id="g568"><path
               d="M 53.00856,-180.89867 C 94.38322,-263.98335 89.6555,-340.62094 39.49002,-416.334"
               style="fill:none;stroke:#808080;stroke-width:0.3985;stroke-linecap:butt;stroke-linejoin:miter;stroke-miterlimit:10;stroke-dasharray:none;stroke-opacity:1"
               id="path570" /><g
               id="g572"
               transform="matrix(-0.55229,-0.83357,0.83357,-0.55229,39.49004,-416.33398)"><g
                 id="g574"><path
                   d="M 1.99252,0 -1.19551,1.59401 0,0 -1.19551,-1.59401"
                   style="fill:#808080;fill-opacity:1;fill-rule:nonzero;stroke:none"
                   id="path576" /></g></g><g
               id="g578"><g
                 id="g580"
                 transform="translate(83.958,-312.022)"><g
                   id="g582"><g
                     id="g584"
                     transform="translate(-148.044,-124.474)"><text
                       transform="matrix(1,0,0,-1,148.044,124.474)"
                       style="font-variant:normal;font-weight:normal;font-size:9.9626px;font-family:CMR10;-inkscape-font-specification:CMR10;writing-mode:lr-tb;fill:#808080;fill-opacity:1;fill-rule:nonzero;stroke:none"
                       id="text606"><tspan
                         x="0 5.5352206 10.516521 13.561091 17.98847 21.890821 30.743587 35.170967 42.427723 46.356976 49.124584 53.27301"
                         y="0"
                         id="tspan586">Sofernessich</tspan><tspan
                         x="0 5.5352206 17.1546 24.972254 29.399633 34.380932 38.808311 44.343533 48.272781 52.147236 52.147236 57.128536 62.663757 68.198975"
                         y="11.955"
                         id="tspan588">umGegenst¨ande</tspan><tspan
                         x="0 5.5352206 10.516521 16.051741 21.586962 26.014341 28.781952 32.656406 38.741562 44.276783 47.044392 54.789318 59.770618 65.30584"
                         y="23.910999"
                         id="tspan590">handelt,dieaus</tspan><tspan
                         x="0 7.4719501 11.3743 17.188475 21.615852 24.383463 28.257919 32.187168 36.614548 40.516899 47.432934 51.860313 55.762665"
                         y="35.866001"
                         id="tspan592">Arbeitserwerb</tspan><tspan
                         x="0 5.8141732 10.241552 14.170802 18.319229 23.85445 28.835749 34.646935 41.838936 48.764935 53.746235 57.648586"
                         y="47.820999"
                         id="tspan594">beschaftwor-</tspan><tspan
                         x="0 5.5352206 9.9625998 18.815367 22.744616 25.512226 31.047447 39.910175 45.435432 50.970654 59.833382 62.600994"
                         y="59.776001"
                         id="tspan596">densindundim</tspan><tspan
                         x="0 9.4126644 13.840044 17.742393 25.213348 24.934395 30.469616 36.283791 40.71117 47.931065 53.466286 56.233894"
                         y="71.731003"
                         id="tspan598">Wert¨uberdie</tspan><tspan
                         x="0 4.9812999 9.408679 16.603668 16.603668 21.584969 27.12019 32.655411 35.423019 38.190632 42.339058 47.874279 52.301659"
                         y="83.685997"
                         id="tspan600">gew¨ohnlichen</tspan><tspan
                         x="0 7.0565095 11.483889 17.298063 17.01911 22.554331 26.45668 29.501251 35.036472 37.804081 41.73333 45.662582 53.407505 58.942726 61.710339 67.24556"
                         y="95.641998"
                         id="tspan602">Bed¨urfnissehin-</tspan><tspan
                         x="0 4.9812999 10.516521 14.44577 19.427071 23.85445 29.389669 33.817051 39.352268"
                         y="107.597"
                         id="tspan604">ausgehen.</tspan></text><g
                       id="g608"
                       transform="translate(148.044,124.474)" /></g></g><g
                   id="g610"
                   transform="translate(-83.958,312.022)" /></g></g></g><g
             id="g612"><g
               id="g614"
               transform="translate(122.047,-56.682)"><g
                 id="g616"><g
                   id="g618"
                   transform="translate(-186.133,-379.814)"><text
                     transform="matrix(1,0,0,-1,186.133,379.814)"
                     style="font-variant:normal;font-weight:normal;font-size:9.9626px;font-family:CMR10;-inkscape-font-specification:CMR10;writing-mode:lr-tb;fill:#000000;fill-opacity:1;fill-rule:nonzero;stroke:none"
                     id="text622"><tspan
                       x="0 4.4273796 7.1949897 14.251499 20.336655 24.764034 27.531645 36.394375 42.0611 47.0424 55.344234 58.111847 60.879456 63.647068 68.074448 73.609665 79.14489 84.12619 89.661407"
                       y="0"
                       id="tspan620">z.B.einFamilienhaus</tspan></text><g
                     id="g624"
                     transform="translate(186.133,379.814)" /></g></g><g
                 id="g626"
                 transform="translate(-122.047,56.682)" /></g></g><g
             id="g628"><g
               id="g630"><path
                 d="m 115.20854,-63.52367 h 107.27563 v 20.59933 H 115.20854 Z"
                 style="fill:none;stroke:#000000;stroke-width:0.3985;stroke-linecap:butt;stroke-linejoin:miter;stroke-miterlimit:10;stroke-dasharray:2.98883, 2.98883;stroke-dashoffset:0;stroke-opacity:1"
                 id="path632" /></g><g
               id="g634"
               transform="translate(118.528,-53.223)"><g
                 id="g636" /><g
                 id="g638"
                 transform="translate(-118.528,53.223)" /></g></g><g
             id="g640"><g
               id="g642"><path
                 d="m 138.27228,-50.41815 h 61.14816 v 15.38618 h -61.14816 z"
                 style="fill:#ffffff;fill-opacity:1;fill-rule:nonzero;stroke:none"
                 id="path644" /></g><g
               id="g646"
               transform="translate(141.591,-45.159)"><g
                 id="g648"><g
                   id="g650"
                   transform="translate(-205.677,-391.337)"><text
                     transform="matrix(1,0,0,-1,205.677,391.337)"
                     style="font-variant:normal;font-weight:normal;font-size:9.9626px;font-family:CMTI10;-inkscape-font-specification:CMTI10;writing-mode:lr-tb;fill:#000000;fill-opacity:1;fill-rule:nonzero;stroke:none"
                     id="text654"><tspan
                       x="0 8.9334631 11.988993 15.298569 19.881365 22.936893 27.51969 32.102486 37.703461 41.013035 46.359962"
                       y="0"
                       id="tspan652">Miteigentum</tspan></text><g
                     id="g656"
                     transform="translate(205.677,391.337)" /></g></g><g
                 id="g658"
                 transform="translate(-141.591,45.159)" /></g></g></g></g></g></g></svg>
